<svg width="100%" height="100%" viewBox="0 0 36 37" version="1.1" xmlns="http://www.w3.org/2000/svg" xmlns:xlink="http://www.w3.org/1999/xlink" xml:space="preserve" xmlns:serif="http://www.serif.com/" style="fill-rule:evenodd;clip-rule:evenodd;stroke-linejoin:round;stroke-miterlimit:2;">
    <g transform="matrix(1,0,0,1,-7.511,0)">
        <path d="M43.347,17.814C43.447,17.922 43.463,17.832 43.488,17.838C43.301,17.677 43.337,17.832 43.347,17.814ZM41.503,16.228L41.555,16.237L41.247,16.038L41.503,16.228ZM39.892,14.632C39.954,14.873 40.491,15.195 40.745,15.511L40.772,15.578L40.975,15.634C40.614,15.3 40.113,14.9 39.892,14.632ZM39.23,13.586C39.247,13.674 39.013,13.433 39.419,13.795C39.406,13.774 39.4,13.765 39.392,13.751C39.358,13.716 39.311,13.668 39.23,13.586ZM39.392,13.751C39.564,13.916 39.31,13.611 39.392,13.751ZM38.588,12.995L38.843,13.185C38.817,13.118 38.623,12.916 38.712,12.974C38.465,12.764 38.492,12.832 38.588,12.995ZM38.31,12.85L38.439,12.952C38.427,12.923 38.399,12.89 38.31,12.85ZM38.713,13.167L38.439,12.952C38.456,12.998 38.431,13.03 38.562,13.053C38.514,13.06 38.589,13.083 38.713,13.167ZM38.838,13.319C38.943,13.462 39.093,13.635 38.837,13.445C39.277,13.855 39.278,13.729 38.838,13.319ZM39.716,14.643L39.856,14.835L40.031,14.948C39.944,14.892 39.734,14.605 39.716,14.643ZM37.242,11.569C37.209,11.575 37.266,11.695 37.258,11.736L37.445,11.878C37.373,11.78 37.225,11.609 37.242,11.569ZM37.257,11.735L36.977,11.524C37.194,11.747 37.251,11.77 37.257,11.735ZM38.168,12.911L38.644,13.243L38.089,12.835L38.168,12.911ZM36.301,10.632L36.486,10.727L36.169,10.547L36.301,10.632ZM35.667,10.021C35.808,10.087 35.588,9.818 35.721,9.904C35.544,9.742 35.367,9.63 35.208,9.529C35.363,9.65 35.506,9.801 35.667,10.021ZM34.947,9.353C35.025,9.413 35.113,9.468 35.208,9.529C35.125,9.464 35.041,9.404 34.947,9.353ZM36.566,11.098C36.559,11.067 36.553,11 36.427,10.851L36.47,11.001C36.499,11.03 36.532,11.064 36.566,11.098ZM36.471,11.006L36.47,11.001C36.366,10.895 36.294,10.822 36.263,10.79C36.289,10.817 36.352,10.882 36.471,11.006ZM36.59,11.122L36.566,11.098C36.571,11.113 36.574,11.12 36.59,11.122ZM37.57,12.221C37.394,12.107 37.06,11.84 37.305,12.176C37.447,12.243 37.305,12.05 37.57,12.221ZM36.643,11.309L36.893,11.581C36.902,11.562 36.875,11.494 36.962,11.551L36.643,11.309ZM36.497,11.199L36.643,11.309L36.55,11.209L36.497,11.199ZM35.344,9.848C35.208,9.76 35.081,9.639 34.938,9.504C35.077,9.663 35.226,9.823 35.374,9.969C35.412,9.972 35.508,10.006 35.344,9.848ZM35.888,10.416L35.859,10.394C35.87,10.413 35.881,10.428 35.888,10.416ZM33.559,8.138L33.572,8.17L33.587,8.166L33.559,8.138ZM35.39,10.003C35.492,10.125 35.572,10.179 35.654,10.226C35.564,10.148 35.471,10.063 35.375,9.968C35.357,9.967 35.35,9.97 35.39,10.003ZM34.536,8.997C34.59,9.07 34.645,9.144 34.701,9.22C34.661,9.147 34.571,9.004 34.536,8.997ZM35.836,10.341L35.856,10.355C35.83,10.307 35.829,10.317 35.836,10.341ZM35.836,10.341C35.77,10.291 35.712,10.259 35.654,10.226C35.727,10.29 35.796,10.347 35.86,10.393C35.849,10.376 35.841,10.356 35.836,10.341ZM32.791,8.071C32.862,8.041 33.205,8.289 33.407,8.596C33.696,8.808 33.698,8.48 33.571,8.17C33.541,8.184 33.52,8.205 33.232,7.977C33.295,8.094 33.742,8.611 33.478,8.44C33.109,8.126 33.215,8.143 33.074,7.951C33.153,8.154 32.546,7.61 32.528,7.775L32.862,8.041C32.853,8.061 32.722,7.975 32.791,8.071ZM34.06,8.664L34.173,8.764C34.06,8.634 33.994,8.529 33.872,8.33C33.67,8.179 33.614,8.161 33.586,8.166L34.104,8.693L34.06,8.664ZM34.653,9.238C34.515,9.21 34.235,8.98 34.333,9.194C34.649,9.5 34.598,9.366 34.809,9.527C34.29,9.04 34.985,9.64 34.651,9.248C34.759,9.337 34.852,9.423 34.938,9.504C34.859,9.408 34.78,9.314 34.702,9.22L34.71,9.235L34.713,9.238L34.711,9.238C34.726,9.266 34.729,9.277 34.708,9.249C34.705,9.246 34.697,9.24 34.697,9.24C34.686,9.243 34.67,9.241 34.653,9.238C34.519,9.082 34.645,9.201 34.697,9.24C34.701,9.239 34.707,9.24 34.711,9.238L34.71,9.235L34.173,8.764C34.273,8.877 34.409,9.009 34.653,9.238ZM36.917,12.026C36.907,12.006 36.911,12.002 36.914,11.998C36.874,11.971 36.857,11.964 36.917,12.026ZM36.742,11.787C36.786,11.816 36.839,11.824 36.953,11.948C37.041,12.068 36.926,11.974 36.914,11.998C37.001,12.054 37.206,12.208 37.007,11.958L36.964,11.93C36.779,11.709 36.586,11.382 36.629,11.41C36.638,11.518 36.655,11.604 36.742,11.787ZM35.669,10.512L35.22,10.122L35.387,10.381L35.405,10.343C35.634,10.59 35.618,10.504 35.669,10.512ZM33.538,8.064L33.653,8.062L33.327,7.901L33.538,8.064ZM32.984,7.528L33.055,7.498L32.879,7.385L32.984,7.528ZM14.085,23.86L14.223,23.968C14.16,23.915 14.117,23.882 14.085,23.86ZM13.191,22.968L13.145,22.971C13.199,22.999 13.226,23.006 13.191,22.968ZM18.889,6.56C18.662,6.692 18.387,6.819 18.466,6.854L18.576,6.854C18.693,6.72 18.796,6.63 18.889,6.56ZM10.006,16.009L10.076,15.974C10.101,15.912 10.124,15.854 10.145,15.801C10.103,15.865 10.055,15.936 10.006,16.009ZM10.108,16.362L9.835,16.563C9.9,16.522 9.989,16.458 10.108,16.362ZM19.04,28.651L19.241,28.738C19.015,28.514 19.086,28.641 19.04,28.651ZM27.353,1.993C27.219,1.818 27.104,1.687 26.998,1.576C27.154,1.793 27.257,1.99 27.353,1.993ZM13.145,24.092C13.23,24.157 13.274,24.178 13.284,24.164C13.196,24.096 13.142,24.062 13.145,24.092ZM26.548,1.131C26.574,1.165 26.593,1.193 26.617,1.226C26.741,1.329 26.863,1.435 26.998,1.576C26.883,1.416 26.739,1.244 26.548,1.131ZM36.125,24.503L36.171,24.47C36.168,24.459 36.149,24.476 36.125,24.503ZM41.857,19.933C41.805,19.986 41.725,20.068 41.649,20.147C41.691,20.114 41.755,20.05 41.857,19.933ZM30.804,5.322C30.924,5.433 30.828,5.334 30.804,5.322ZM31.15,6.098C31.119,6.08 31.092,6.069 31.077,6.079C31.1,6.075 31.125,6.083 31.15,6.098ZM25.061,1.095L25.051,1.105C25.093,1.085 25.086,1.088 25.061,1.095ZM30.954,5.52C30.917,5.47 30.873,5.415 30.821,5.357C30.846,5.386 30.885,5.436 30.954,5.52ZM30.956,5.471C30.994,5.513 31.024,5.545 31.052,5.576C31.076,5.582 31.069,5.564 30.956,5.471ZM30.639,5.165C30.707,5.229 30.766,5.293 30.821,5.357C30.803,5.331 30.796,5.318 30.804,5.322C30.769,5.289 30.72,5.242 30.639,5.165ZM26.756,34.072C26.766,34.066 26.774,34.06 26.786,34.052C26.881,33.914 26.832,33.968 26.756,34.072ZM16.441,10.123L16.451,10.107L16.432,10.122L16.441,10.123ZM16.065,10.577C16.174,10.333 16.283,10.241 16.432,10.122L16.135,10.101L16.065,10.577ZM16.247,25.97L16.004,25.63C16.44,25.899 16.668,26.18 16.463,25.839C16.248,25.969 15.306,24.728 15.092,24.859L14.936,24.632C14.989,24.689 15.008,24.687 15.061,24.743C14.769,24.289 14.656,24.591 14.198,24.087C14.042,23.907 13.949,23.765 14.086,23.859L13.667,23.529C13.56,23.417 13.618,23.414 13.723,23.525L13.135,22.971L13.145,22.971C13.035,22.916 12.808,22.775 12.7,22.702C12.579,22.533 12.792,22.757 12.776,22.698L12.416,22.425C12.332,22.253 12.638,22.47 12.851,22.693C12.728,22.229 12.544,22.476 12.006,21.742L12.328,22.017C12.233,21.728 11.963,21.532 11.685,21.136C11.733,21.247 12.21,21.961 11.821,21.662C11.737,21.553 11.615,21.42 11.395,21.27C11.455,21.208 11.258,21.043 11.028,20.821L11.125,20.756C10.856,20.536 10.834,20.596 10.652,20.49C10.387,20.211 10.393,20.092 10.382,19.976C9.957,19.529 10.584,20.376 10.05,19.878C9.717,19.486 9.428,19.265 8.943,18.882C8.715,18.602 9.037,18.877 8.969,18.763L8.678,18.603C8.624,18.547 8.662,18.545 8.681,18.544C8.479,18.393 8.544,18.57 8.327,18.399C8.252,18.402 8.185,18.297 8.142,18.2C8.24,18.138 8.336,18.081 8.408,18.027C8.447,17.996 8.468,17.978 8.507,17.932C8.561,17.873 8.608,17.81 8.646,17.745C8.76,17.677 8.652,17.838 8.711,17.841C9.153,17.272 9.098,17.362 9.426,16.859L9.835,16.56C9.512,16.758 9.774,16.356 10.006,16.007C9.884,16.07 9.779,16.123 9.713,16.163L10.136,15.657C10.206,15.615 10.187,15.689 10.144,15.799C10.167,15.761 10.191,15.725 10.21,15.694C10.407,15.559 10.367,15.691 10.294,15.855C10.222,15.893 10.148,15.932 10.075,15.971C10.009,16.135 9.956,16.296 10.028,16.319C10.049,16.28 10.1,16.214 10.159,16.146C10.142,16.189 10.135,16.22 10.157,16.214C10.182,16.207 10.212,16.141 10.268,16.044L10.465,16.03L10.455,15.968L11.123,15.42C11.468,14.897 11.714,14.387 12.37,13.663C12.264,13.9 12.442,13.808 12.511,13.896C12.238,14 12.009,14.463 11.633,14.802C11.83,14.625 11.826,14.703 11.791,14.763L12.356,14.053C12.407,14.131 12.54,13.966 12.735,13.827C12.481,13.826 13.128,13.27 13.35,12.972C13.409,12.998 13.39,13.104 13.062,13.409C13.509,13.156 13.366,12.811 13.792,12.551C13.715,12.629 13.667,12.664 13.658,12.716C13.802,12.499 14.276,12.089 14.209,12.23L14.132,12.307C14.663,11.811 15.704,10.753 15.672,10.57C15.691,10.579 15.735,10.766 15.726,10.819L16.281,9.546C16.293,9.719 16.827,9.63 16.451,10.106C16.587,9.997 16.755,9.862 16.981,9.573C16.884,9.643 16.637,9.647 16.743,9.525C17.161,9.316 17.017,9.364 17.493,9.068C17.347,9.172 17.341,8.89 17.544,8.698C17.535,8.75 17.705,8.824 17.647,8.911L17.998,8.28C17.9,8.427 18.098,8.422 18.248,8.352C18.169,8.375 18.678,7.932 18.796,7.787L18.553,7.962C19.132,7.431 18.902,7.216 19.463,6.676C19.425,6.772 19.48,7.02 19.78,6.76C19.835,6.559 19.997,5.844 20.43,5.304L20.567,5.252L20.895,4.833C20.771,5.174 20.347,6.054 20.079,6.499C20.321,6.326 20.187,6.49 20.496,6.177C20.646,6.107 20.385,6.405 20.296,6.498L21.049,5.804C20.931,5.751 21.52,5.168 21.42,5.125L20.719,5.996C20.601,5.943 20.932,5.302 21.463,4.806C21.629,4.71 21.518,5.054 21.557,5.072C21.595,4.977 21.99,4.531 22.059,4.505L21.886,4.768C22.206,4.515 22.241,4.191 22.667,3.93C22.792,3.818 23.133,3.688 23.103,3.617C22.811,3.712 22.47,3.45 22.526,3.249C22.574,3.214 23.245,2.723 23.429,2.636C23.703,2.518 23.318,3.108 23.551,3.009C23.535,2.979 23.614,2.842 23.65,2.789C23.795,2.685 23.671,2.912 23.932,2.632C23.891,2.501 24.492,2.092 23.987,2.433C24.228,2.145 24.287,2.171 24.595,1.858C24.441,1.899 24.681,1.395 24.929,1.1C24.934,1.139 25.023,1.107 25.061,1.096C25.202,0.965 25.327,0.85 25.442,0.742C25.754,1.079 25.96,1.325 26.344,1.707C26.37,1.774 26.59,2.042 26.448,1.976C26.537,2.033 26.633,2.07 26.792,2.223C27.02,2.597 26.431,1.888 26.571,2.206C26.641,2.176 27.047,2.539 27.301,2.728C27.31,2.583 26.8,2.203 26.545,2.013C26.652,1.905 27.154,2.179 27.734,2.655C28.183,3.047 27.848,2.906 27.937,2.963C28.711,3.767 28.8,3.446 29.381,4.174C29.574,4.5 29.256,4.321 29.265,4.427C28.895,4.112 28.781,3.861 28.545,3.633L28.799,3.949C28.667,3.863 28.42,3.653 28.315,3.51C28.472,3.787 29.643,4.847 30.197,5.509C30.329,5.594 30.54,5.757 30.479,5.641L30.276,5.459C30.153,5.228 30.717,5.743 30.498,5.476C30.797,5.694 31.149,5.922 31.483,6.315L31.473,6.46C31.488,6.43 31.28,6.177 31.154,6.1C31.341,6.216 31.608,6.76 31.878,6.824L31.675,6.516C31.975,6.735 32.381,6.972 32.679,7.318C32.609,7.095 32.596,7.253 32.456,6.935C32.543,7.244 31.632,6.11 31.835,6.544C31.704,6.206 31.471,6.095 31.251,5.701C31.234,5.736 31.311,5.858 31.052,5.576C31.032,5.572 30.993,5.553 30.969,5.54C30.961,5.531 30.959,5.528 30.952,5.52L30.964,5.538C30.949,5.53 30.947,5.529 30.969,5.544C31.022,5.62 31.061,5.685 31.068,5.72C30.874,5.645 30.444,5.215 30.266,5.1C30.117,4.928 30.363,5.138 30.303,5.024L30.039,4.853C30.074,4.775 29.706,4.335 30.12,4.677L29.78,4.336C29.611,4.105 29.347,3.818 29.152,3.673C29.003,3.501 28.681,3.332 28.866,3.427L28.293,2.931L28.303,2.912C27.781,2.381 27.118,1.926 26.617,1.225C26.52,1.141 26.422,1.057 26.312,0.962C26.239,0.892 26.163,0.818 26.079,0.736C25.98,0.635 25.874,0.526 25.752,0.4L25.673,0.223C25.603,0.156 25.529,0.084 25.442,0C25.236,0.195 24.981,0.433 24.766,0.634C24.509,0.879 24.471,0.918 24.435,0.996C24.055,1.109 23.296,2.067 22.87,2.442L22.919,2.521C22.639,2.791 22.391,3.073 22.074,3.439L22.152,3.475C21.902,3.815 21.35,4.189 20.886,4.659C20.896,4.606 21.021,4.494 21.119,4.424C20.43,4.85 20.031,5.687 19.428,6.097C19.322,6.243 19.224,6.326 19.121,6.4C19.132,6.388 19.142,6.377 19.149,6.366C19.136,6.378 19.116,6.397 19.097,6.416C19.031,6.463 18.96,6.512 18.891,6.56C18.958,6.521 19.02,6.483 19.069,6.444C18.973,6.542 18.831,6.696 18.7,6.854L18.577,6.854C18.566,6.867 18.557,6.876 18.545,6.889C18.381,7.008 18.46,7.032 18.582,7.002C18.519,7.084 18.464,7.163 18.427,7.228C18.212,7.245 18.08,7.639 17.816,7.69C17.771,7.838 17.125,8.451 17.157,8.635C17.138,8.626 17.088,8.662 17.166,8.583C16.991,8.731 16.818,8.879 16.703,9.053L16.557,9.044L16.308,9.497C16.046,9.663 15.929,9.724 16.083,9.453C15.661,10.054 15.7,9.9 15.354,10.425L15.324,10.354C15.17,10.511 14.987,10.825 14.851,10.877C14.405,11.129 13.106,12.579 12.118,13.38C12.441,13.354 11.634,13.728 11.714,13.876C11.627,13.894 11.481,13.998 11.596,13.824C11.172,14.312 10.852,14.451 10.632,14.86C10.544,14.877 10.679,14.712 10.611,14.737C10.582,14.781 10.496,14.912 10.428,14.938C10.36,14.964 10.465,14.843 10.522,14.756C10.06,15.226 10.121,15.379 10.188,15.514C9.903,15.701 9.791,15.825 9.687,16.062C9.571,16.111 9.398,16.213 9.677,15.913C9.508,16.07 8.628,16.855 8.693,16.952C8.621,16.982 8.458,17.172 8.424,17.224C8.229,17.411 8.122,17.513 8.017,17.614C7.884,17.747 7.753,17.877 7.511,18.12L7.668,17.991C7.66,18.069 7.623,18.131 7.554,18.204C7.691,18.33 7.808,18.503 8.055,18.734L8.033,18.732C8.668,19.502 8.366,18.994 8.952,19.735L8.977,19.639C9.171,19.569 9.483,20.292 9.915,20.621L9.811,20.45C10.065,20.611 10.215,21.204 10.409,21.427C10.443,21.484 10.318,21.375 10.246,21.319C10.717,21.939 10.397,21.31 10.825,21.696C10.857,21.814 10.618,21.709 10.885,21.989C10.987,22.159 11.823,22.64 12.115,23.093C12.064,22.977 12.015,22.863 12.23,23.026C12.533,23.303 12.89,23.93 13.258,24.085C13.286,24.131 13.291,24.153 13.284,24.163C13.534,24.356 14.052,24.834 14.243,24.91C14.237,25.322 15.728,26.177 15.528,26.364L16.223,27.031L16.185,27.033C16.609,27.478 16.811,27.586 17.011,27.691C17.099,27.805 17.007,27.75 16.988,27.752C17.588,28.423 17.659,28.478 18.292,28.912L18.284,29.03C18.466,29.137 19.109,30.043 19.809,30.589C19.796,30.59 19.771,30.589 19.712,30.549C20.491,31.173 21.224,32.394 21.713,32.421L22.235,32.826C21.651,32.212 22.425,32.815 22.215,32.532C22.466,32.753 22.758,33.207 22.455,32.931L22.422,32.874C22.194,32.887 23.127,33.657 23.029,33.722C23.405,34.091 23.772,34.465 24.132,34.838C24.573,35.294 25.011,35.748 25.444,36.196C25.958,35.703 26.461,35.221 26.955,34.746L26.734,34.781L27.126,34.403C27.249,34.324 27.335,34.34 27.055,34.61C27.253,34.518 27.473,34.108 27.461,34.08C28.04,33.582 27.359,34.396 27.527,34.235L27.745,34.005L27.683,34.045C27.828,33.827 27.804,33.771 28.14,33.447C28.368,33.258 28.305,33.397 28.391,33.319C28.397,33.325 28.428,33.302 28.52,33.196L29.016,32.721L28.748,32.841C28.927,32.592 29.21,32.391 28.902,32.531C29.361,32.332 30.767,30.777 31.009,30.616C31.258,30.263 31.557,29.969 31.934,29.608C31.826,29.684 31.689,29.657 32.018,29.351C32.072,29.635 32.676,28.846 33.058,28.712C32.746,28.859 33.945,27.793 33.468,28.037C33.748,27.787 33.548,28.084 33.79,27.924C34.358,27.23 35.23,26.583 35.991,25.786C35.981,25.751 35.815,25.847 35.95,25.648L36.476,25.349C36.619,25.185 36.489,25.08 36.85,24.877C36.791,24.898 36.703,24.928 36.799,24.819C38.444,23.408 39.846,21.626 41.61,20.286C41.355,20.452 41.492,20.308 41.651,20.147C41.536,20.24 41.598,20.09 41.547,20.08L42.284,19.518C42.319,19.317 42.979,18.819 42.966,18.673L42.774,18.892C42.954,18.525 42.178,19.063 42.096,18.902C41.896,19.314 41.124,19.546 40.774,20.2C40.638,20.286 40.83,20.067 40.742,20.098C40.666,20.277 40.523,20.441 40.213,20.701L40.232,20.656C39.44,21.465 39.044,21.755 38.106,22.616L38.233,22.609C38.031,22.793 37.971,22.816 37.865,22.89C37.733,23.201 38.416,22.355 38.313,22.656C37.933,22.79 36.942,24.01 36.628,24.044C36.328,24.339 36.785,24.027 36.486,24.322L36.368,24.363L36.341,24.486C36.137,24.672 35.991,24.723 35.952,24.698C36.003,24.655 36.078,24.555 36.126,24.502C35.827,24.709 35.425,25.226 35.323,25.299L35.634,25.037C34.854,25.879 33.808,26.816 33.098,27.672L33.186,27.641C32.637,28.289 32.673,28.087 32.036,28.765L32.054,28.735C31.95,28.894 31.787,29.083 31.604,29.258C31.737,29.06 31.225,29.505 31.407,29.252C30.811,29.954 31.128,29.615 30.803,30.147L30.657,30.198C30.553,30.386 30.563,30.42 30.245,30.759C30.475,30.451 29.962,30.896 30.212,30.543C29.416,31.126 29.288,31.664 28.82,31.829C28.633,32.274 29.492,31.308 29.342,31.512C29.534,31.407 29.177,31.869 28.947,32.07C28.723,32.286 28.404,32.277 27.849,32.83C27.905,32.776 27.899,32.762 27.955,32.708C27.713,32.881 27.592,33.156 27.282,33.356C27.218,33.576 26.946,33.68 27.006,33.821L27.493,33.293C27.23,33.605 27.077,33.99 26.543,34.406C26.559,34.349 26.675,34.182 26.757,34.071C26.588,34.18 26.509,34.356 26.334,34.469C26.274,34.328 26.932,33.833 27.165,33.45C26.972,33.556 26.652,34.103 26.698,33.84C26.613,34.2 26.132,34.365 25.861,34.843L25.825,34.759C25.779,34.824 25.659,34.999 25.628,35.026C25.628,35.026 25.638,34.978 25.639,34.938C25.649,34.889 25.694,34.806 25.689,34.81C25.655,34.86 25.627,34.898 25.602,34.934C25.586,34.954 25.567,34.971 25.547,34.984C25.508,35.01 25.471,35.017 25.442,35.023C25.411,34.969 25.39,34.935 25.354,34.924C25.409,34.977 25.433,35.015 25.442,35.047C25.476,35.062 25.4,35.227 25.49,35.197C25.472,35.221 25.456,35.242 25.442,35.261C25.247,35.119 25.236,35.026 25.194,34.897C25.122,34.737 25.032,34.554 24.613,34.168C24.737,34.273 25.007,34.629 24.8,34.48C24.651,34.308 24.462,34.075 24.395,33.945C23.822,33.403 24.419,34.092 24.143,33.893C24.026,33.631 23.838,33.65 23.569,33.43L23.629,33.368C23.03,32.697 23.331,33.327 22.804,32.711L23.133,32.867L22.811,32.593L22.943,32.584C22.564,32.313 22.476,32.199 22.177,31.863C22.208,31.98 22.024,31.933 21.739,31.655C21.582,31.428 21.905,31.704 21.496,31.316C21.624,31.367 21.772,31.418 21.89,31.647C21.927,31.645 22.018,31.697 22.056,31.695C21.89,31.448 21.544,31.169 21.398,31.026C21.451,31.083 21.515,31.153 21.541,31.195L20.874,30.705C20.806,30.591 20.897,30.644 20.987,30.698C20.863,30.588 20.753,30.536 20.575,30.37C20.67,30.364 20.71,30.302 20.979,30.522L20.369,30.029C20.354,29.971 20.145,29.689 20.236,29.742C19.958,29.409 19.386,29.092 19.017,28.651C18.986,28.639 18.934,28.607 18.841,28.528C18.47,28.138 18.193,27.741 17.671,27.361L17.503,27.017C17.127,26.686 17.738,27.474 17.113,26.922C16.666,26.536 17.033,26.692 16.912,26.521C16.658,26.36 16.204,26.092 15.893,25.64C16.035,25.747 16.122,25.859 16.247,25.97ZM11.829,21.673C11.927,21.745 12.136,21.873 12.161,21.97C11.994,21.944 11.953,21.837 11.829,21.673ZM10.769,15.488C10.726,15.571 10.619,15.657 10.485,15.744C10.561,15.659 10.653,15.572 10.769,15.488ZM29.48,4.111L29.468,4.105C29.303,3.894 29.361,3.969 29.48,4.111ZM29.847,4.526C29.895,4.557 29.901,4.546 29.892,4.52C29.85,4.509 29.76,4.423 29.664,4.319C29.676,4.362 29.716,4.424 29.847,4.526ZM28.411,33.253L28.319,33.313C28.474,33.124 28.441,33.188 28.411,33.253ZM10.099,16.319C10.064,16.333 10.046,16.328 10.029,16.322C10.006,16.365 10.017,16.378 10.099,16.319ZM19.003,28.634L19.016,28.648C19.028,28.652 19.035,28.652 19.041,28.651L19.003,28.634ZM23.739,2.886C23.649,2.957 23.593,2.991 23.551,3.009C23.561,3.028 23.611,3.004 23.739,2.886ZM32.034,6.485L31.766,6.251C31.891,6.369 31.921,6.425 31.973,6.495C31.982,6.477 31.954,6.408 32.034,6.485ZM33.839,9.026C33.883,9.055 33.918,9.103 33.961,9.131L33.98,9.093C33.821,8.939 33.689,8.853 33.839,9.026ZM32.063,6.918C32.031,6.989 32.206,7.128 32.392,7.294L32.36,7.262C32.486,7.242 32.274,7.08 32.063,6.918ZM32.435,7.332C32.492,7.384 32.549,7.437 32.599,7.493C32.649,7.484 32.539,7.421 32.435,7.332ZM30.38,4.986C30.45,5.082 30.499,4.972 30.525,5.04C30.684,5.068 29.887,4.567 30.38,4.986ZM32.035,7.228L32.036,7.102L31.886,7.055L32.035,7.228ZM30.69,5.804L30.954,6.1C30.961,6.085 31.002,6.114 31.051,6.153C30.879,5.979 30.702,5.778 30.69,5.804ZM31.051,6.153C31.14,6.244 31.228,6.327 31.289,6.367C31.239,6.32 31.131,6.218 31.051,6.153ZM31.631,6.866L31.561,6.77L31.367,6.569L31.631,6.866ZM27.673,2.792L27.347,2.505C27.294,2.496 27.364,2.592 27.488,2.696C27.576,2.755 27.698,2.86 27.673,2.792ZM28.428,3.886C28.358,3.79 28.367,3.77 28.341,3.703L28.252,3.773L28.428,3.886ZM27.512,3.017C27.46,3.009 27.003,2.637 27.398,3.018C27.451,3.027 27.776,3.314 27.512,3.017ZM23.046,3.142L23.123,3.063L22.982,2.945L23.046,3.142ZM19.272,7.493C19.668,7.163 19.278,7.328 19.647,7.041C19.702,6.925 19.346,7.276 19.407,7.163C19.219,7.412 19.085,7.508 19.272,7.493ZM19.407,7.163C19.434,7.124 19.464,7.081 19.499,7.032C19.444,7.103 19.42,7.139 19.407,7.163ZM42.786,19.152L43.047,18.947L42.852,19.053L42.786,19.152ZM43.14,18.611L43.277,18.638L43.343,18.425C43.294,18.481 43.198,18.59 43.14,18.611ZM11.344,20.864L11.307,20.866C11.322,20.923 11.375,20.979 11.481,21.092L11.344,20.864ZM14.461,24.072L14.407,24.016L14.435,24.192L14.461,24.072ZM17.224,26.618C17.112,26.514 16.979,26.39 16.867,26.286C17.118,26.508 17.16,26.74 17.224,26.618Z" style="fill-rule:nonzero;"/>
        <path d="M19.822,13.011C19.822,12.692 20.075,12.246 20.579,11.672C21.021,11.521 21.248,11.442 21.261,11.437C21.451,11.38 21.625,11.361 21.783,11.381C21.809,11.381 21.875,11.417 21.983,11.488C22.089,11.559 22.158,11.594 22.19,11.594C22.235,11.582 22.26,11.567 22.266,11.549L22.247,11.474C22.297,11.474 22.428,11.458 22.64,11.426C22.852,11.396 22.973,11.381 23.004,11.381C23.029,11.381 23.1,11.393 23.217,11.418C23.335,11.443 23.407,11.456 23.432,11.456C23.463,11.456 23.527,11.433 23.626,11.389C23.723,11.345 23.788,11.322 23.82,11.322C23.85,11.322 23.957,11.316 24.141,11.304C24.324,11.291 24.431,11.285 24.464,11.285C24.753,11.285 24.993,11.361 25.183,11.512C25.321,11.512 25.416,11.411 25.466,11.21C25.548,10.897 25.596,10.728 25.609,10.704C25.799,10.43 25.953,10.283 26.072,10.264C26.111,10.258 26.317,10.196 26.689,10.077C26.967,9.995 27.125,9.954 27.163,9.954C27.238,9.954 27.418,10.032 27.702,10.189C27.985,10.313 28.14,10.404 28.165,10.461C27.813,10.968 27.413,11.555 26.964,12.224C27.122,12.524 27.201,12.677 27.201,12.683C27.206,12.72 27.212,12.779 27.22,12.861C27.225,12.943 27.231,13.005 27.238,13.048C27.244,13.085 27.229,13.18 27.195,13.331C27.161,13.48 27.144,13.567 27.144,13.592C27.144,13.636 27.027,13.783 26.794,14.032C26.724,14.101 26.66,14.166 26.603,14.227C26.547,14.285 26.503,14.333 26.471,14.371L26.425,14.419C26.38,14.461 26.288,14.664 26.15,15.027C26.017,15.358 25.932,15.523 25.894,15.523C25.83,15.523 25.736,15.471 25.614,15.368C25.49,15.265 25.409,15.17 25.372,15.083C25.328,14.889 25.212,14.505 25.021,13.931C24.939,13.749 24.734,13.515 24.407,13.227C24.299,13.14 24.034,13.036 23.61,12.917C23.351,12.843 23.13,12.805 22.947,12.805C22.917,12.805 22.871,12.818 22.81,12.843C22.751,12.867 22.705,12.88 22.672,12.88C22.642,12.88 22.604,12.857 22.559,12.811C22.516,12.763 22.478,12.739 22.446,12.739C22.389,12.739 22.266,12.811 22.077,12.955C21.951,13.042 21.866,13.106 21.821,13.147C21.776,13.188 21.753,13.216 21.751,13.232C21.748,13.248 21.746,13.284 21.746,13.339C21.746,13.602 21.812,13.89 21.945,14.203C22.001,14.34 22.057,14.478 22.115,14.619C22.172,14.759 22.21,14.854 22.228,14.902C22.248,14.948 22.26,14.971 22.266,14.971C22.298,14.909 22.314,14.865 22.314,14.84C22.706,15.246 23.466,15.73 24.596,16.294C24.924,16.443 25.42,16.67 26.083,16.974C26.745,17.276 27.241,17.499 27.57,17.643C28.631,18.125 29.433,18.597 29.975,19.059C30.638,19.634 31.038,20.352 31.177,21.214C31.177,21.266 31.166,21.36 31.144,21.497C31.123,21.634 31.112,21.712 31.112,21.732C31.112,21.981 30.739,22.493 29.994,23.268C29.261,24.05 28.709,24.535 28.337,24.722C27.359,25.236 26.512,25.602 25.797,25.821C25.628,25.833 25.276,25.924 24.739,26.093C24.694,26.085 24.615,26.079 24.501,26.074C24.388,26.067 24.303,26.06 24.246,26.053C24.22,26.053 24.154,26.085 24.046,26.149C23.938,26.211 23.869,26.242 23.839,26.242C23.826,26.242 23.737,26.179 23.572,26.053L22.815,25.877C22.461,25.775 22.222,25.603 22.096,25.359C22.051,25.292 21.959,25.267 21.821,25.284C21.776,25.19 21.668,25.025 21.498,24.788C21.473,24.763 21.451,24.629 21.433,24.386C21.306,24.242 21.217,24.091 21.167,23.935C21.129,23.853 21.05,23.803 20.929,23.786C20.849,23.684 20.817,23.606 20.835,23.551C20.86,23.519 20.887,23.48 20.916,23.433C20.945,23.385 20.963,23.355 20.97,23.343C20.97,23.382 20.912,23.401 20.797,23.401C20.742,23.401 20.723,23.345 20.741,23.231C21.215,22.232 22.333,20.926 24.095,19.313C24.044,19.363 23.798,19.74 23.354,20.446C23.393,20.665 23.387,20.824 23.335,20.924C23.317,20.963 23.15,21.257 22.834,21.807C22.683,22.212 22.541,22.68 22.408,23.212C22.496,23.244 22.619,23.32 22.777,23.439C22.966,23.581 23.083,23.652 23.128,23.652L23.726,23.652C24.255,23.652 25.243,23.402 26.689,22.903C26.707,22.89 26.794,22.811 26.95,22.665C27.105,22.518 27.201,22.444 27.238,22.444C27.269,22.444 27.296,22.448 27.319,22.457C27.341,22.468 27.356,22.476 27.365,22.481C27.376,22.488 27.384,22.496 27.389,22.505C27.396,22.514 27.403,22.519 27.408,22.519C27.516,22.2 27.639,22.041 27.777,22.041C27.809,22.041 27.853,22.05 27.906,22.068C27.96,22.088 28.003,22.097 28.033,22.097C28.103,22.097 28.334,21.932 28.725,21.601L29.057,21.367C29.037,21.304 29.078,21.15 29.181,20.905C29.186,20.893 29.238,20.826 29.337,20.705C29.434,20.582 29.482,20.496 29.482,20.446C29.482,19.997 28.81,19.412 27.465,18.694C26.303,18.068 25.605,17.755 25.372,17.755C25.341,17.755 25.318,17.768 25.302,17.793C25.285,17.818 25.265,17.83 25.24,17.83C25.207,17.83 25.174,17.796 25.14,17.729C25.106,17.659 25.073,17.625 25.04,17.625C25.01,17.625 24.991,17.647 24.984,17.691C24.978,17.734 24.959,17.755 24.927,17.755C24.889,17.755 24.839,17.728 24.776,17.673C24.713,17.616 24.672,17.587 24.652,17.587C24.09,17.456 23.509,17.206 22.909,16.838C22.854,16.818 22.699,16.752 22.446,16.64C22.439,16.608 22.372,16.48 22.247,16.256C22.216,16.306 22.16,16.331 22.077,16.331C21.869,16.331 21.565,16.096 21.167,15.627C21.028,15.49 20.807,15.24 20.504,14.878C20.05,14.152 19.822,13.53 19.822,13.011Z" style="fill:rgb(229,27,35);fill-rule:nonzero;"/>
    </g>
</svg>
